<?xml version="1.0" encoding="utf-8"?>
<!-- Generator: Adobe Illustrator 22.0.1, SVG Export Plug-In . SVG Version: 6.00 Build 0)  -->
<svg version="1.0" id="Layer_1" xmlns="http://www.w3.org/2000/svg" xmlns:xlink="http://www.w3.org/1999/xlink" x="0px" y="0px"
	 width="967.816px" height="194.441px" viewBox="0 0 967.816 194.441" enable-background="new 0 0 967.816 194.441"
	 xml:space="preserve">
<path fill-rule="evenodd" clip-rule="evenodd" d="M926.215,88.841c-4.117,0-7.61,1.065-10.481,3.194
	c-2.871,2.129-5.065,5.323-6.581,9.582c-1.516,4.258-2.275,9.611-2.275,16.06c0,6.449,0.758,11.802,2.275,16.06
	c1.517,4.258,3.711,7.452,6.581,9.582c2.871,2.129,6.365,3.194,10.481,3.194c4.008,0,7.448-1.065,10.319-3.194
	c2.871-2.13,5.065-5.323,6.581-9.582c1.516-4.258,2.275-9.612,2.275-16.06c0-6.449-0.758-11.802-2.275-16.06
	c-1.517-4.258-3.71-7.452-6.581-9.582C933.663,89.905,930.224,88.841,926.215,88.841L926.215,88.841z M926.215,70.226
	c8.234,0,15.465,1.886,21.693,5.657c6.23,3.772,11.104,9.186,14.626,16.243c3.521,7.057,5.281,15.574,5.281,25.55
	c0,9.855-1.761,18.342-5.281,25.459c-3.521,7.118-8.396,12.562-14.626,16.334c-6.228,3.772-13.46,5.658-21.693,5.658
	c-8.125,0-15.329-1.886-21.613-5.658c-6.283-3.772-11.185-9.217-14.706-16.334c-3.52-7.117-5.281-15.604-5.281-25.459
	c0-9.977,1.761-18.493,5.281-25.55c3.521-7.057,8.423-12.471,14.706-16.243C910.886,72.111,918.091,70.226,926.215,70.226
	L926.215,70.226z M822.215,163.302V72.051h19.338l1.462,17.885c2.167-6.327,5.335-11.194,9.506-14.6
	c4.171-3.407,9.398-5.11,15.682-5.11c1.841,0,3.52,0.182,5.037,0.548c1.517,0.365,2.763,0.852,3.738,1.46l-2.6,20.988
	c-1.083-0.487-2.411-0.852-3.982-1.095c-1.57-0.243-3.601-0.365-6.093-0.365c-3.251,0-6.392,0.882-9.425,2.646
	c-3.034,1.765-5.525,4.441-7.476,8.03c-1.95,3.589-2.925,8.121-2.925,13.596v47.268H822.215L822.215,163.302z M761.115,100.704
	c6.716,0,11.754-1.612,15.113-4.836c3.359-3.224,5.037-7.939,5.037-14.144c0-6.327-1.679-11.072-5.037-14.235
	c-3.359-3.163-8.397-4.745-15.113-4.745H741.94v37.96H761.115L761.115,100.704z M764.527,42.85c8.234,0,15.275,1.552,21.125,4.654
	c5.85,3.103,10.372,7.544,13.568,13.323c3.196,5.779,4.794,12.745,4.794,20.896c0,8.152-1.598,15.117-4.794,20.896
	c-3.196,5.779-7.719,10.22-13.568,13.323c-5.85,3.103-12.892,4.654-21.125,4.654H741.94v42.706h-22.425V42.85H764.527L764.527,42.85
	z M676.126,44.128v27.923h26v18.615h-26v42.888c0,4.38,1.002,7.574,3.006,9.581c2.004,2.008,4.74,3.012,8.207,3.012
	c2.816,0,5.227-0.457,7.231-1.369c2.004-0.912,3.819-2.159,5.444-3.741l3.575,16.607c-2.6,2.311-5.849,4.137-9.75,5.475
	c-3.9,1.339-8.016,2.008-12.35,2.008c-5.417,0-10.211-0.913-14.382-2.738c-4.171-1.825-7.421-4.745-9.75-8.761
	c-2.329-4.015-3.494-9.368-3.494-16.06V90.666h-14.951V72.051h14.951V51.063L676.126,44.128L676.126,44.128z M547.426,163.302
	V72.051h19.987l0.805,16.927c1.081-2.699,2.383-5.088,3.908-7.163c2.817-3.833,6.257-6.722,10.319-8.669
	c4.062-1.947,8.531-2.92,13.406-2.92c5.633,0,10.644,1.217,15.031,3.65c4.388,2.433,7.855,6.113,10.401,11.041
	c2.546,4.927,3.819,11.102,3.819,18.524v59.861h-22.263v-52.743c0-7.786-1.355-13.17-4.063-16.151
	c-2.707-2.981-6.229-4.471-10.562-4.471c-3.033,0-5.986,0.821-8.857,2.464c-2.871,1.642-5.2,4.288-6.987,7.939
	c-1.787,3.65-2.681,8.516-2.681,14.6v48.363H547.426L547.426,163.302z M491.038,165.127c-16.256,0-29.753-7.047-37.051-21.9
	c-3.467-7.057-5.2-15.574-5.2-25.551c0-25.708,13.33-47.451,41.113-47.451c25.115,0,38.675,18.699,38.675,42.523
	c0,4.217-0.118,8.591-0.65,12.775c-19.137,0-38.274,0-57.412,0c0.408,3.211,1.101,6.04,2.08,8.486
	c3.283,8.207,9.408,12.502,18.281,12.502c8.722,0,14.788-3.651,18.362-11.681l17.712,7.665
	C521.372,157.769,506.661,165.127,491.038,165.127L491.038,165.127z M507.266,108.186c-0.494-5.571-1.975-10.012-4.446-13.323
	c-3.088-4.137-7.448-6.205-13.082-6.205c-4.117,0-7.665,1.095-10.644,3.285c-5.131,3.771-7.371,10.172-8.325,16.243
	C482.935,108.186,495.1,108.186,507.266,108.186L507.266,108.186z M381.187,165.127c-5.416,0-10.292-1.096-14.625-3.286
	c-4.334-2.189-7.774-5.687-10.319-10.493c-2.546-4.807-3.818-11.042-3.818-18.706V72.051h22.262v54.568
	c0,7.057,1.301,11.954,3.9,14.692c2.6,2.737,6.337,4.106,11.212,4.106c2.275,0,4.496-0.456,6.663-1.369
	c2.167-0.913,4.089-2.342,5.769-4.289c1.679-1.947,3.007-4.471,3.981-7.574c0.975-3.103,1.463-6.783,1.463-11.042V72.051h22.262
	v91.251h-19.825l-0.813-15.878c-2.708,6.083-6.419,10.555-11.131,13.414C393.456,163.697,387.796,165.127,381.187,165.127
	L381.187,165.127z M323.012,32.083v103.114c0,4.258,0.65,7.239,1.95,8.943c1.299,1.703,3.466,2.555,6.5,2.555
	c1.841,0,3.358-0.152,4.55-0.456c1.191-0.304,2.708-0.76,4.55-1.369l-1.95,16.425c-1.842,1.217-4.144,2.159-6.906,2.829
	c-2.763,0.669-5.498,1.004-8.207,1.004c-7.908,0-13.677-2.16-17.306-6.479c-3.629-4.319-5.443-11.224-5.443-20.714V32.083H323.012
	L323.012,32.083z M284.174,63.108h-57.85v30.478h45.663v20.44h-45.663v49.275h-22.425V42.85h80.275V63.108z"/>
<ellipse transform="matrix(1 -0.0012 0.0012 1 -0.1933 0.0346)" fill-rule="evenodd" clip-rule="evenodd" fill="#383B98" cx="29.42" cy="165.022" rx="29.419" ry="29.419"/>
<path fill-rule="evenodd" clip-rule="evenodd" fill="#E93035" d="M172.864,30.351c0,16.694-13.658,30.351-30.35,30.351H31.594
	C18.355,60.702,6.664,65.894,0,75.071v-44.72C0,13.657,13.658,0,30.351,0h112.163C159.207,0,172.864,13.657,172.864,30.351
	L172.864,30.351z M120.159,98.153c0-17.377-14.216-31.594-31.593-31.594H31.593C14.217,66.559,0,80.775,0,98.152v44.436
	c6.316-8.265,17.133-12.843,29.419-12.843h59.147C105.941,129.746,120.159,115.529,120.159,98.153z"/>
</svg>
